<?xml version="1.0" encoding="UTF-8"?>
<svg width="32px" height="32px" viewBox="0 0 32 32" version="1.1" xmlns="http://www.w3.org/2000/svg" xmlns:xlink="http://www.w3.org/1999/xlink">
    <title>MathWallet_logo</title>
    <defs>
        <circle id="path-1" cx="16.00005" cy="16.0002" r="16"></circle>
    </defs>
    <g id="Page" stroke="none" stroke-width="1" fill="none" fill-rule="evenodd">
        <g id="Connect-to-a-wallet" transform="translate(-962.000000, -387.000000)">
            <g id="Popup-window" transform="translate(630.000000, 111.000000)">
                <g id="MathWallet" transform="translate(32.000000, 260.000000)">
                    <g id="MathWallet_logo" transform="translate(299.999950, 15.999800)">
                        <mask id="mask-2" fill="white">
                            <use xlink:href="#path-1"></use>
                        </mask>
                        <use id="Oval" fill="#000000" xlink:href="#path-1"></use>
                        <path d="M9.23907004,15.0896119 C8.80038096,14.6509228 8.80038096,13.9396184 9.23907004,13.5009294 C9.67775912,13.0622403 10.3890635,13.0622403 10.8277526,13.5009294 C11.2664417,13.9396184 11.2664417,14.6509228 10.8277526,15.0896119 C10.3890635,15.528301 9.67775912,15.528301 9.23907004,15.0896119 M11.2248269,13.1036624 C10.7861378,12.665166 10.7861378,11.9538616 11.2248269,11.5151725 C11.663516,11.0762908 12.3748204,11.0762908 12.8135094,11.5151725 C13.2521985,11.9538616 13.2521985,12.665166 12.8135094,13.1036624 C12.3748204,13.5423515 11.663516,13.5423515 11.2248269,13.1036624 M11.2248269,17.0753688 C10.7861378,16.6366797 10.7861378,15.9253753 11.2248269,15.4866862 C11.663516,15.0479971 12.3748204,15.0479971 12.8135094,15.4866862 C13.2521985,15.9253753 13.2521985,16.6366797 12.8135094,17.0753688 C12.3748204,17.5140578 11.663516,17.5140578 11.2248269,17.0753688 M7.45175402,16.8769279 C7.1228817,16.547863 7.1228817,16.0143847 7.45175402,15.6853197 C7.78081899,15.3562547 8.31429728,15.3562547 8.64336226,15.6853197 C8.97223457,16.0143847 8.97223457,16.547863 8.64336226,16.8769279 C8.31429728,17.2058002 7.78081899,17.2058002 7.45175402,16.8769279 M15.5936076,20.6498081 C15.3743593,20.4305599 15.3743593,20.0747151 15.5936076,19.8556595 C15.8130484,19.6362187 16.1687006,19.6362187 16.3879488,19.8556595 C16.6073897,20.0747151 16.6073897,20.4305599 16.3879488,20.6498081 C16.1687006,20.869249 15.8130484,20.869249 15.5936076,20.6498081 M7.6503875,20.6498081 C7.43113929,20.4305599 7.43113929,20.0747151 7.6503875,19.8556595 C7.86982837,19.6362187 8.2252879,19.6362187 8.44472877,19.8556595 C8.66416964,20.0747151 8.66416964,20.4305599 8.44472877,20.6498081 C8.2252879,20.869249 7.86982837,20.869249 7.6503875,20.6498081 M5.66463065,18.6640513 C5.44518978,18.4448031 5.44518978,18.0891509 5.66463065,17.86971 C5.88387886,17.6504618 6.23953105,17.6504618 6.45897192,17.86971 C6.67822013,18.0891509 6.67822013,18.4448031 6.45897192,18.6640513 C6.23953105,18.8834922 5.88387886,18.8834922 5.66463065,18.6640513 M13.4094099,18.8624921 C13.0801522,18.5334271 13.0801522,18.0001415 13.4094099,17.6710765 C13.7382822,17.3422042 14.2717605,17.3422042 14.6008255,17.6710765 C14.9298904,18.0001415 14.9298904,18.5334271 14.6008255,18.8624921 C14.2717605,19.1917498 13.7382822,19.1917498 13.4094099,18.8624921 M15.3951667,16.8769279 C15.0661018,16.547863 15.0661018,16.0143847 15.3951667,15.6853197 C15.7242317,15.3562547 16.25771,15.3562547 16.5865823,15.6853197 C16.9156473,16.0143847 16.9156473,16.547863 16.5865823,16.8769279 C16.25771,17.2058002 15.7242317,17.2058002 15.3951667,16.8769279 M9.43770353,18.8624921 C9.10863855,18.5334271 9.10863855,18.0001415 9.43770353,17.6710765 C9.76657584,17.3422042 10.3000541,17.3422042 10.6291191,17.6710765 C10.9581841,18.0001415 10.9581841,18.5334271 10.6291191,18.8624921 C10.3000541,19.1917498 9.76657584,19.1917498 9.43770353,18.8624921 M13.2107764,15.0896119 C12.7718947,14.6509228 12.7718947,13.9396184 13.2107764,13.5009294 C13.6494655,13.0622403 14.3605772,13.0622403 14.7992663,13.5009294 C15.238148,13.9396184 15.238148,14.6509228 14.7992663,15.0896119 C14.3605772,15.528301 13.6494655,15.528301 13.2107764,15.0896119 M17.2007856,15.0896119 C16.7620965,14.6509228 16.7620965,13.9396184 17.2007856,13.5009294 C17.6396673,13.0622403 18.350779,13.0622403 18.7894681,13.5009294 C19.2281572,13.9396184 19.2281572,14.6509228 18.7894681,15.0896119 C18.350779,15.528301 17.6396673,15.528301 17.2007856,15.0896119 M19.1867351,13.1036624 C18.7478533,12.665166 18.7478533,11.9538616 19.1867351,11.5151725 C19.6252315,11.0762908 20.3367285,11.0762908 20.7752249,11.5151725 C21.213914,11.9538616 21.213914,12.665166 20.7752249,13.1036624 C20.3367285,13.5423515 19.6252315,13.5423515 19.1867351,13.1036624 M19.1867351,17.0753688 C18.7478533,16.6366797 18.7478533,15.9253753 19.1867351,15.4866862 C19.6252315,15.0479971 20.3367285,15.0479971 20.7752249,15.4866862 C21.213914,15.9253753 21.213914,16.6366797 20.7752249,17.0753688 C20.3367285,17.5140578 19.6252315,17.5140578 19.1867351,17.0753688 M23.5555157,20.6498081 C23.3360749,20.4305599 23.3360749,20.0747151 23.5555157,19.8556595 C23.7747639,19.6362187 24.1304161,19.6362187 24.349857,19.8556595 C24.5691052,20.0747151 24.5691052,20.4305599 24.349857,20.6498081 C24.1304161,20.869249 23.7747639,20.869249 23.5555157,20.6498081 M25.5412726,18.6640513 C25.3220244,18.4448031 25.3220244,18.0891509 25.5412726,17.86971 C25.7607134,17.6504618 26.1163656,17.6504618 26.3356138,17.86971 C26.5548621,18.0891509 26.5548621,18.4448031 26.3356138,18.6640513 C26.1163656,18.8834922 25.7607134,18.8834922 25.5412726,18.6640513 M21.3711254,18.8624921 C21.0420604,18.5334271 21.0420604,18.0001415 21.3711254,17.6710765 C21.7001904,17.3422042 22.233476,17.3422042 22.562541,17.6710765 C22.8914133,18.0001415 22.8914133,18.5334271 22.562541,18.8624921 C22.233476,19.1917498 21.7001904,19.1917498 21.3711254,18.8624921 M23.3568822,16.8769279 C23.0278173,16.547863 23.0278173,16.0143847 23.3568822,15.6853197 C23.6857546,15.3562547 24.2194255,15.3562547 24.5482978,15.6853197 C24.8773628,16.0143847 24.8773628,16.547863 24.5482978,16.8769279 C24.2194255,17.2058002 23.6857546,17.2058002 23.3568822,16.8769279 M17.3992264,18.8624921 C17.0703541,18.5334271 17.0703541,18.0001415 17.3992264,17.6710765 C17.7282913,17.3422042 18.2617696,17.3422042 18.5908346,17.6710765 C18.9198996,18.0001415 18.9198996,18.5334271 18.5908346,18.8624921 C18.2617696,19.1917498 17.7282913,19.1917498 17.3992264,18.8624921 M21.1722992,15.0896119 C20.7338028,14.6509228 20.7338028,13.9396184 21.1722992,13.5009294 C21.611181,13.0622403 22.3222927,13.0622403 22.7611745,13.5009294 C23.1998635,13.9396184 23.1998635,14.6509228 22.7611745,15.0896119 C22.3222927,15.528301 21.611181,15.528301 21.1722992,15.0896119" id="Fill-1" fill="#FFFFFF" mask="url(#mask-2)"></path>
                    </g>
                </g>
            </g>
        </g>
    </g>
</svg>