<?xml version="1.0" encoding="UTF-8"?>
<svg width="32px" height="32px" viewBox="0 0 32 32" version="1.1" xmlns="http://www.w3.org/2000/svg" xmlns:xlink="http://www.w3.org/1999/xlink">
    <title>SafePal Wallet_logo</title>
    <defs>
        <circle id="path-1" cx="16" cy="16" r="16"></circle>
    </defs>
    <g id="Page" stroke="none" stroke-width="1" fill="none" fill-rule="evenodd">
        <g id="Connect-to-a-wallet" transform="translate(-962.000000, -707.000000)">
            <g id="Popup-window" transform="translate(630.000000, 111.000000)">
                <g id="SafePal-Wallet" transform="translate(32.000000, 580.000000)">
                    <g id="SafePal-Wallet_logo" transform="translate(300.000000, 16.000000)">
                        <mask id="mask-2" fill="white">
                            <use xlink:href="#path-1"></use>
                        </mask>
                        <use id="Oval" fill="#050101" xlink:href="#path-1"></use>
                        <path d="M21.4208431,10.1409493 L21.4208431,14.1418528 L22.4096338,14.1418528 L22.4096338,10.4424994 L21.4208431,10.1409493 Z M19.0812886,6.93570884 L24.7480588,8.66764548 L24.7480588,16.4514781 L21.4208431,16.4514781 L21.4208431,19.8221758 C21.4208431,19.8221758 20.6771325,20.7849903 19.0835474,21.5919474 C19.0835474,21.1458339 19.082418,14.2931925 19.0818533,10.1177965 L19.0812886,6.93570884 Z M12.7831832,6.9944377 L12.7831832,9.47460259 L9.58980151,10.4537934 L9.58980151,14.1418528 L12.7831832,14.1418528 L12.7831832,24.8237287 L12.0756134,24.4651439 C9.87497529,23.3459073 7.25194116,21.4598074 7.25194116,18.826044 L7.25194116,17.5842674 L9.58980151,17.5842674 L9.58980151,18.826044 C9.58980151,19.37098 9.8772341,19.9435864 10.4447582,20.5331338 L10.4447582,16.4514781 L7.25194116,16.4514781 L7.25194116,8.68119829 L12.7831832,6.9944377 Z M16.0149646,6 L18.37146,6.71773442 L18.37146,9.20919333 L16.0149646,8.4892001 L15.8608013,8.53663495 L15.8608013,14.1418528 L18.37146,14.1418528 L18.37146,16.4514781 L15.8608013,16.4514781 L15.8608013,25.966118 L15.2063134,25.7249908 C14.9025044,25.6137448 14.4129091,25.4234407 13.8069853,25.1523844 L13.5223763,25.0236327 L13.5223763,6.76008696 L16.0149646,6 Z M24.7480588,17.5842674 L24.7480588,18.9971483 C24.7480588,22.9223819 18.9819013,25.1811842 17.2143886,25.7808962 L16.5711946,26 L16.5711946,23.5582347 L16.8851681,23.4413417 C19.6352599,22.4192337 22.4096338,20.6483327 22.4096338,18.9971483 L22.4096338,17.5842674 L24.7480588,17.5842674 Z" id="Fill-1" fill="#FFFFFF" mask="url(#mask-2)"></path>
                    </g>
                </g>
            </g>
        </g>
    </g>
</svg>