<?xml version="1.0" encoding="UTF-8"?>
<svg width="32px" height="32px" viewBox="0 0 32 32" version="1.1" xmlns="http://www.w3.org/2000/svg" xmlns:xlink="http://www.w3.org/1999/xlink">
    <title>TokenPocket_logo</title>
    <defs>
        <circle id="path-1" cx="16" cy="16" r="16"></circle>
    </defs>
    <g id="Page" stroke="none" stroke-width="1" fill="none" fill-rule="evenodd">
        <g id="Connect-to-a-wallet" transform="translate(-962.000000, -467.000000)">
            <g id="Popup-window" transform="translate(630.000000, 111.000000)">
                <g id="4" transform="translate(32.000000, 340.000000)">
                    <g id="TokenPocket" transform="translate(300.000000, 16.000000)">
                        <g id="TokenPocket_logo">
                            <mask id="mask-2" fill="white">
                                <use xlink:href="#path-1"></use>
                            </mask>
                            <use id="Oval" fill="#007EFF" xlink:href="#path-1"></use>
                            <path d="M18.6071429,9.54285714 L18.6071429,14.9428571 C18.6071429,15.0848 18.4919429,15.2 18.35,15.2 L15.7785714,15.2 L15.7785714,24.9714286 C15.7785714,25.1136286 15.6633714,25.2285714 15.5214286,25.2285714 L11.15,25.2285714 C11.0080571,25.2285714 10.8928571,25.1136286 10.8928571,24.9714286 L10.8928571,15.2 L8.32142857,15.2 C8.17948571,15.2 8.06428571,15.0848 8.06428571,14.9428571 L8.06428571,9.54285714 C8.06428571,9.40091429 8.17948571,9.28571429 8.32142857,9.28571429 L18.35,9.28571429 C18.4919429,9.28571429 18.6071429,9.40091429 18.6071429,9.54285714" id="Fill-3" fill="#A1CCFF" mask="url(#mask-2)"></path>
                            <path d="M25.9357143,13.9142857 C25.9357143,17.18 23.2871429,19.8285714 20.0214286,19.8285714 L18.4785714,19.8285714 L18.4785714,23.6857143 C18.4785714,23.8271429 18.3628571,23.9428571 18.2214286,23.9428571 L13.5928571,23.9428571 C13.4514286,23.9428571 13.3357143,23.8271429 13.3357143,23.6857143 L13.3357143,8.25714286 C13.3357143,8.11571429 13.4514286,8 13.5928571,8 L20.0214286,8 C23.2871429,8 25.9357143,10.6485714 25.9357143,13.9142857" id="Fill-1" fill="#FFFFFF" mask="url(#mask-2)"></path>
                        </g>
                    </g>
                </g>
            </g>
        </g>
    </g>
</svg>