<?xml version="1.0" encoding="UTF-8"?>
<svg width="32px" height="32px" viewBox="0 0 32 32" version="1.1" xmlns="http://www.w3.org/2000/svg" xmlns:xlink="http://www.w3.org/1999/xlink">
    <title>Binance Chain Wallet_logo</title>
    <g id="Page" stroke="none" stroke-width="1" fill="none" fill-rule="evenodd">
        <g id="Connect-to-a-wallet" transform="translate(-962.000000, -627.000000)">
            <g id="Popup-window" transform="translate(630.000000, 111.000000)">
                <g id="Binance-Chain-Wallet" transform="translate(32.000000, 500.000000)">
                    <g id="Binance-Chain-Wallet_logo" transform="translate(300.000000, 16.000000)">
                        <circle id="Oval" fill="#000000" cx="16" cy="16" r="16"></circle>
                        <path d="M18.1477768,23.2654533 L18.1477768,25.7553344 L16,27 L13.8516731,25.7553344 L13.8516731,23.2654533 L16,24.5106689 L18.1477768,23.2654533 Z M25.516494,14.7444718 L25.516494,21.483706 L19.6732209,24.8535982 L19.6732209,22.363717 L23.3681671,20.2390405 L23.3681671,15.9891374 L25.516494,14.7444718 Z M6.48350604,14.7444718 L8.6318329,15.9891374 L8.6318329,20.2384905 L12.3267791,22.363717 L12.3267791,24.8535982 L6.48350604,21.483706 L6.48350604,14.7444718 Z M19.6948912,11.3745247 L21.842668,12.6191902 L21.842668,15.1090714 L18.1477218,17.2342979 L18.1477218,21.483651 L15.999945,22.7288666 L13.8516181,21.483651 L13.8516181,17.2342979 L10.157222,15.1090714 L10.157222,12.6191902 L12.3049988,11.3745247 L15.999945,13.4992012 L19.6948912,11.3745247 Z M21.842833,16.8689834 L21.842833,19.3588645 L19.6950562,20.6040801 L19.6950562,18.1141989 L21.842833,16.8689834 Z M10.157222,16.8689834 L12.3049988,18.1141989 L12.3049988,20.6040801 L10.157222,19.3588645 L10.157222,16.8689834 Z M23.3681121,9.24935312 L25.516439,10.4945687 L25.516439,12.9844498 L23.3681121,14.2291154 L23.3681121,11.7397842 L21.2203353,10.4945687 L23.3681121,9.24935312 Z M8.6318329,9.24935312 L10.7796097,10.4945687 L8.6318329,11.7397842 L8.6318329,14.2291154 L6.48350604,12.9844498 L6.48350604,10.4945687 L8.6318329,9.24935312 Z M16.000055,9.24962812 L18.1478318,10.4942937 L16.000055,11.7395092 L13.8517281,10.4942937 L16.000055,9.24962812 Z M16,5 L21.843273,8.36934212 L19.6949462,9.61455768 L16,7.48933112 L12.3045038,9.61455768 L10.156727,8.36934212 L16,5 Z" id="fill" fill="#F0B90B"></path>
                    </g>
                </g>
            </g>
        </g>
    </g>
</svg>