<?xml version="1.0" encoding="UTF-8"?>
<svg width="32px" height="32px" viewBox="0 0 32 32" version="1.1" xmlns="http://www.w3.org/2000/svg" xmlns:xlink="http://www.w3.org/1999/xlink">
    <title>TrustWallet_logo</title>
    <defs>
        <circle id="path-1" cx="16" cy="16" r="16"></circle>
    </defs>
    <g id="Page" stroke="none" stroke-width="1" fill="none" fill-rule="evenodd">
        <g id="Connect-to-a-wallet" transform="translate(-962.000000, -307.000000)">
            <g id="Popup-window" transform="translate(630.000000, 111.000000)">
                <g id="TrustWallet" transform="translate(32.000000, 180.000000)">
                    <g id="TrustWallet_logo" transform="translate(300.000000, 16.000000)">
                        <mask id="mask-2" fill="white">
                            <use xlink:href="#path-1"></use>
                        </mask>
                        <use id="Oval" fill="#3375BB" xlink:href="#path-1"></use>
                        <path d="M21.1284975,19.986872 C21.4300817,19.3657336 21.680881,18.507078 21.8707384,17.2726142 C22.0980985,15.7982894 22.237171,13.7934576 22.3020195,11.0659176 C20.854259,11.0245083 18.3681426,10.745582 15.9976596,9.15015472 C13.6271765,10.7416755 11.1402788,11.0198205 9.69798751,11.0659176 C9.74877242,13.3207673 9.85112353,15.0740185 10.0128539,16.4522427 C10.1988048,18.0195429 10.4636676,19.0821194 10.7925975,19.8290481 C11.010582,20.3259589 11.2520056,20.6830158 11.5395263,20.9978822 C11.9247102,21.4205689 12.411464,21.7682502 13.074793,22.1674977 C13.3498128,22.3323533 13.6537409,22.5042406 13.9834521,22.6909728 C14.5717757,23.0238093 15.246043,23.4050867 15.9976596,23.8840274 C16.7352126,23.4128998 17.3993229,23.0355289 17.9806148,22.7050363 C18.1564087,22.6058105 18.3243895,22.5097098 18.483776,22.4175157 C19.3010223,21.9495132 19.9034094,21.5596414 20.3534417,21.1049212 C20.6550259,20.7939613 20.9011374,20.4556557 21.1284975,19.986872 L21.1284975,19.986872 Z M23.285684,9.14546688 C23.5450777,9.14546688 23.7911891,9.25250583 23.9724522,9.43298757 C24.1529339,9.61893845 24.255285,9.86895644 24.2507515,10.1244436 C24.2045001,12.8894863 24.0974612,15.0044822 23.8974468,16.6796028 C23.7029015,18.353942 23.410693,19.5970002 22.9700363,20.6041039 C22.6731399,21.2768086 22.3067073,21.8330986 21.8754263,22.3065702 C21.2949157,22.9331778 20.6323681,23.3871167 19.9080972,23.8183977 C19.5986999,24.0035673 19.2768018,24.1863929 18.9400588,24.377813 C18.2196945,24.7872174 17.4282313,25.2364685 16.5312917,25.8365117 C16.2062683,26.0544961 15.784363,26.0544961 15.4593396,25.8365117 C14.5491178,25.2294367 13.7467163,24.7739352 13.0201016,24.3621868 C12.8583712,24.270774 12.7005473,24.1809238 12.54663,24.0926362 C11.6973501,23.6004133 10.93167,23.1324108 10.2636532,22.4550184 C9.81830867,22.0096738 9.4331247,21.466666 9.12763397,20.8220883 C8.70963514,19.958745 8.42680229,18.9149199 8.21819353,17.565604 C7.94004851,15.7607867 7.8001947,13.3996793 7.74924854,10.1244436 C7.74472196,9.86895644 7.84238524,9.61893845 8.02364828,9.43298757 C8.20413002,9.25250583 8.45492931,9.14546688 8.71432298,9.14546688 L9.11357046,9.14546688 C10.3425651,9.15015472 13.0560416,9.02983356 15.4038668,7.201577 C15.7515481,6.93280767 16.2390832,6.93280767 16.5867645,7.201577 C18.9338083,9.02983356 21.6480662,9.15015472 22.8817487,9.14546688 L23.285684,9.14546688 Z" id="Fill-1" fill="#FFFFFF" mask="url(#mask-2)"></path>
                    </g>
                </g>
            </g>
        </g>
    </g>
</svg>