<?xml version="1.0" encoding="UTF-8"?>
<svg width="32px" height="32px" viewBox="0 0 32 32" version="1.1" xmlns="http://www.w3.org/2000/svg" xmlns:xlink="http://www.w3.org/1999/xlink">
    <title>WalletConnect_logo</title>
    <g id="Page" stroke="none" stroke-width="1" fill="none" fill-rule="evenodd">
        <g id="Connect-to-a-wallet" transform="translate(-962.000000, -547.000000)">
            <g id="Popup-window" transform="translate(630.000000, 111.000000)">
                <g id="WalletConnect" transform="translate(32.000000, 420.000000)">
                    <g id="WalletConnect_logo" transform="translate(300.000000, 16.000000)">
                        <circle id="Oval" fill="#3B99FC" cx="16" cy="16" r="16"></circle>
                        <path d="M25.5508791,14.8833831 L26.865491,16.170488 C27.0448363,16.3461657 27.0448363,16.6309176 26.865491,16.806522 L20.9379277,22.6101941 C20.758509,22.7858718 20.4676689,22.7858718 20.2883236,22.6101941 L16.081228,18.491194 C16.03641,18.4472563 15.9637183,18.4472563 15.918827,18.491194 L11.7118781,22.6101941 C11.5325328,22.7858718 11.2416927,22.7858718 11.0623474,22.6101941 L5.13456398,16.8064486 C4.95514534,16.6308443 4.95514534,16.3460924 5.13456398,16.1704147 L6.44910257,14.8833097 C6.6285212,14.7077054 6.91936131,14.7077054 7.09877994,14.8833097 L11.3058756,19.0024565 C11.3506936,19.0463209 11.4233852,19.0463209 11.4682766,19.0024565 L15.6751521,14.8833097 C15.8545708,14.7077054 16.1453375,14.707632 16.3247562,14.8833097 L16.3248295,14.8833097 L20.5318518,19.0024565 C20.5766698,19.0463209 20.6494348,19.0463209 20.6942528,19.0024565 L24.9013484,14.8833831 C25.0806937,14.7077787 25.3715338,14.7077787 25.5508791,14.8833831 L25.5508791,14.8833831 Z M9.50384055,11.8926079 C13.0916265,8.37986091 18.9084285,8.37986091 22.4961411,11.8926079 L22.9279635,12.3153346 C23.1073088,12.490939 23.1073088,12.7757642 22.9279635,12.9513686 L21.4508772,14.3975004 C21.3612412,14.4853759 21.2157845,14.4853759 21.1261485,14.3975004 L20.5319251,13.8157468 C18.0290132,11.365208 13.9710419,11.365208 11.4681299,13.8157468 L10.8318025,14.4387975 C10.7420932,14.5265996 10.5967098,14.5265996 10.5070005,14.4387975 L9.02991422,12.9925923 C8.85056894,12.816988 8.85056894,12.5322361 9.02991422,12.3565584 L9.50384055,11.8926079 Z" id="Fill-1" fill="#FFFFFF"></path>
                    </g>
                </g>
            </g>
        </g>
    </g>
</svg>