<?xml version="1.0" encoding="utf-8"?>
<!-- Generator: Adobe Illustrator 24.0.0, SVG Export Plug-In . SVG Version: 6.00 Build 0)  -->
<svg version="1.1" id="Layer_1" xmlns="http://www.w3.org/2000/svg" xmlns:xlink="http://www.w3.org/1999/xlink" x="0px" y="0px"
	 viewBox="0 0 388.159 121.639" enable-background="new 0 0 388.159 121.639" xml:space="preserve">
<g>
	<path fill="#F47621" d="M251.585,32.074c-0.1-6.36-4.18-11.874-9.983-13.764c-11.025-3.592-21.079-2.35-29.431,6.449
		c-0.705,0.742-1.116,0.979-1.787-0.244c-1.561-2.844-3.908-4.895-6.939-6.23c-8.795-3.874-23.014-1.429-30.259,6.897
		c0-2.196-0.096-3.807,0.028-5.402c0.119-1.532-0.451-2.059-1.956-2.036c-4.046,0.061-8.095,0.068-12.141-0.007
		c-1.395-0.026-1.859,0.358-1.854,1.829c0.054,15.564,0.051,31.128,0.004,46.691c-0.004,1.378,0.469,1.667,1.732,1.646
		c4.202-0.069,8.408-0.111,12.607,0.014c1.745,0.052,2.179-0.417,2.189-2.196c0.049-8.789-0.349-17.586,0.194-26.366
		c0.346-5.588,4.281-9.334,9.854-9.895c8.658-0.872,12.825,2.313,12.576,11.421c-0.227,8.32-0.008,16.652-0.09,24.978
		c-0.016,1.649,0.47,2.101,2.091,2.053c3.888-0.116,7.788-0.163,11.671,0.015c2.047,0.093,2.588-0.47,2.566-2.534
		c-0.09-8.401-0.236-16.816,0.132-25.204c0.445-10.141,9.463-12.105,17.016-10.243c1.579,0.389,2.859,1.42,3.91,2.729
		c1.438,1.792,1.397,3.924,1.415,5.994c0.081,9.026,0.08,18.053,0.093,27.08c0.002,1.095-0.283,2.185,1.507,2.152
		c4.513-0.083,9.028-0.059,13.542-0.006c1.16,0.014,1.424-0.442,1.42-1.504C251.649,54.952,251.765,43.511,251.585,32.074z"/>
	<path fill="#F47621" d="M124.101,34.457c-0.012-2.485-0.05-5.003-0.876-7.377c-1.982-5.699-6.717-8.341-12.048-9.46
		c-11.051-2.321-22.192-2.717-33.176,0.663c-6.594,2.029-10.521,6.48-11.781,13.294c-0.228,1.232,0.044,1.696,1.359,1.679
		c4.204-0.053,8.409-0.048,12.613,0.006c1.348,0.017,1.928-0.668,2.314-1.817c0.869-2.59,2.598-4.55,5.26-5.066
		c5.617-1.089,11.29-1.141,16.814,0.586c2.153,0.673,3.299,3.033,3.115,5.439c-0.18,2.345-1.456,3.612-3.754,4.052
		c-1.844,0.354-3.701,0.434-5.559,0.61c-8.32,0.789-16.75,0.459-24.932,2.69c-5.368,1.464-9.984,5.945-10.475,10.615
		c-0.839,7.992,1.763,13.648,7.625,16.506c5.851,2.852,12.135,3.297,18.433,2.729c6.417-0.579,12.789-1.675,18.031-6.004
		c1.115-0.921,1.555-0.404,1.664,0.914c0.108,1.314,0.056,3.208,1.756,3.278c5.038,0.207,10.09,0.074,15.41,0.074
		c-1.428-3.954-1.79-7.795-1.781-11.691C124.128,48.938,124.137,41.697,124.101,34.457z M99.299,58.528
		c-2.735,0.982-5.568,1.254-8.653,1.564c-3.276-0.447-6.994-0.31-9.295-3.789c-2.318-3.504-0.657-7.885,3.355-9.057
		c4.451-1.3,9.086-0.972,13.614-1.622c2.917-0.418,5.855-0.568,8.632-1.658c1.542-0.605,1.254,0.587,1.296,1.353
		C108.61,51.94,105.637,56.252,99.299,58.528z"/>
	<path fill="#F47621" d="M299.982,16.602c-7.399-1.101-14.873-1.005-22.228,0.794c-6.996,1.712-12.943,5.007-16.658,11.431
		c-3.78,6.537-3.981,13.72-2.667,20.825c1.453,7.851,6.153,13.466,13.597,16.686c5.962,2.579,12.223,3.366,18.631,3.406
		c3.354,0.091,6.651-0.259,9.961-0.829C311.729,67,320.344,62.07,323,50.217c1.537-6.861,1.334-13.748-1.845-20.203
		C316.856,21.288,308.903,17.929,299.982,16.602z M297.157,57.189c-6.459,2.138-14.845,1.16-19.124-4.116
		c-2.45-3.02-3.371-6.539-3.09-10.069c-0.447-9.909,6.464-15.431,14.936-15.38c5.024,0.03,9.74,0.598,13.333,4.545
		C310.439,40.109,307.26,53.844,297.157,57.189z"/>
	<path fill="#F47621" d="M49.718,39.763c-5.228-1.63-10.608-2.164-16.003-2.795c-4.076-0.477-8.229-0.511-12.199-1.762
		c-1.638-0.517-3.11-1.313-3.242-3.192c-0.14-2.002,0.717-3.659,2.669-4.451c3.616-1.468,7.364-1.648,11.198-1.034
		c3.473,0.556,6.417,1.744,7.656,5.436c0.305,0.909,1.177,0.869,1.974,0.866c2.413-0.009,4.827-0.003,7.24-0.003
		c0,0.01,0,0.019,0,0.029c2.569,0,5.138-0.016,7.707,0.008c1.084,0.01,1.584-0.322,1.312-1.522
		c-1.026-4.529-2.986-8.416-7.13-10.911c-4.926-2.966-10.381-3.849-15.994-4.206c-7.789-0.495-15.513-0.418-23.014,2.159
		C2.526,21.601-1.64,31.596,3.081,39.917c2.483,4.377,6.983,5.592,11.511,6.448c4.957,0.937,9.98,1.471,14.974,2.171
		c3.059,0.429,6.191,0.665,9.151,1.687c1.588,0.548,3.062,1.278,3.2,3.258c0.131,1.879-0.619,3.28-2.305,4.187
		c-0.756,0.406-1.521,0.723-2.35,0.972c-3.273,0.985-6.635,1.061-9.955,0.717c-4.029-0.418-7.882-1.439-9.21-6.07
		c-0.264-0.922-0.939-0.944-1.634-0.945c-4.982-0.006-9.965,0.043-14.947-0.003c-1.451-0.013-1.627,0.576-1.472,1.86
		c0.556,4.604,2.844,8.136,6.614,10.665c3.73,2.502,7.973,3.602,12.406,4.17c10.373,1.329,20.615,1.099,30.673-2.1
		c6.397-2.035,10.452-7.589,10.377-14.313C60.044,46.243,56.394,41.845,49.718,39.763z"/>
	<path fill="#F47621" d="M249.77,74.372c-3.81,0.094-7.625,0.035-11.438-0.003c-1.032-0.01-1.598,0.072-1.754,1.419
		c-0.475,4.103-1.694,8.003-3.564,11.727c-8.61,17.141-31.766,22.641-47.197,11.28c-7.748-5.705-12.062-13.322-13.394-22.71
		c-0.199-1.405-0.572-1.831-1.952-1.742c-1.86,0.12-3.733,0.03-5.601,0.03c0,0.009,0,0.018,0,0.027c-1.79,0-3.593,0.138-5.365-0.037
		c-1.922-0.189-2.345,0.572-2.217,2.337c0.917,12.637,5.691,23.53,15.049,32.113c12.805,11.743,27.952,15.406,44.633,11.056
		c12.451-3.247,22.019-10.873,28.469-22.132c3.79-6.616,5.847-13.767,6.247-21.4C251.765,74.816,251.308,74.334,249.77,74.372z"/>
	<path fill="#F47621" d="M388.056,32.375c-0.018-2.682-0.958-5.178-2.426-7.43c-3.191-4.898-8.036-6.986-13.559-7.927
		c-9.794-1.668-18.377,0.689-26.022,7.886c0-1.889-0.129-3.437,0.033-4.954c0.196-1.844-0.643-2.244-2.265-2.212
		c-3.89,0.077-7.783,0.078-11.674,0.028c-1.434-0.018-2.03,0.334-2.023,1.959c0.066,15.488,0.067,30.976,0.001,46.463
		c-0.007,1.583,0.607,1.73,1.901,1.709c4.124-0.067,8.255-0.134,12.374,0.025c1.921,0.074,2.258-0.593,2.258-2.353
		c0-8.169-0.351-16.348,0.22-24.507c0.358-5.127,2.749-8.992,7.747-10.835c3.61-1.332,7.4-1.313,11.012-0.315
		c3.16,0.873,5.225,3.145,5.75,6.62c0.281,1.86,0.361,3.711,0.363,5.576c0.007,7.938,0.041,15.877-0.032,23.815
		c-0.014,1.502,0.348,2.022,1.916,1.985c4.279-0.101,8.562-0.052,12.842-0.023c1.03,0.007,1.696,0.01,1.686-1.424
		C388.081,55.1,388.132,43.737,388.056,32.375z"/>
	<path fill="#F47621" d="M148.543,60.359c0.002-18.901,0.015-37.802-0.004-56.703c-0.004-4.123,0.318-3.56-3.658-3.609
		c-3.5-0.043-7.005,0.098-10.5-0.04c-1.799-0.071-2.375,0.385-2.358,2.278c0.095,10.577,0.046,21.156,0.046,31.734
		c0,10.578,0.045,21.157-0.044,31.735c-0.015,1.761,0.455,2.219,2.188,2.165c4.197-0.132,8.401-0.088,12.601-0.018
		c1.313,0.022,1.799-0.384,1.741-1.713C148.471,64.248,148.542,62.302,148.543,60.359z"/>
</g>
</svg>
